<?xml version="1.0" encoding="UTF-8"?>
<!-- Creator: CorelDRAW 2020 (64-Bit) -->
<svg xmlns="http://www.w3.org/2000/svg" xml:space="preserve" width="8002px" height="8002px" version="1.0" style="shape-rendering:geometricPrecision; text-rendering:geometricPrecision; image-rendering:optimizeQuality; fill-rule:evenodd; clip-rule:evenodd"
viewBox="0 0 106274000 106274000"
 xmlns:xlink="http://www.w3.org/1999/xlink"
 xmlns:xodm="http://www.corel.com/coreldraw/odm/2003">
 <defs>
  <style type="text/css">
   <![CDATA[
    .str0 {stroke:#202020;stroke-width:31000;stroke-miterlimit:22.9256}
    .fil1 {fill:#18181B}
    .fil2 {fill:#202020}
    .fil0 {fill:#202020}
   ]]>
  </style>
 </defs>
 <g id="Capa_x0020_1">
  <metadata id="CorelCorpID_0Corel-Layer"/>
  <g id="_2251284791424">
   <path class="fil0 str0" d="M62551000 64481000c-149000,-814000 522000,-1585000 887000,-1874000 549000,-433000 1097000,-692000 1818000,-948000 6378000,-2270000 7707000,3489000 6792000,8402000 -304000,1635000 -999000,2658000 -2275000,3259000 -741000,349000 -1562000,567000 -1747000,-439000 -77000,-417000 -41000,-865000 -90000,-1278000 -289000,-2460000 -2082000,-4551000 -3944000,-5748000 -592000,-381000 -1318000,-699000 -1441000,-1374000zm-22127000 -37637000c1406000,-296000 1789000,929000 2183000,1912000 394000,983000 689000,2125000 858000,3291000 394000,2720000 306000,5300000 -1676000,6368000 -943000,508000 -2405000,978000 -2711000,-512000 -186000,-907000 190000,-6656000 258000,-8005000 59000,-1155000 -35000,-2817000 1088000,-3054000zm-40408000 -3137000l0 3533000c328000,-113000 718000,-343000 1052000,-497000 341000,-157000 699000,-316000 1078000,-467000 2485000,-995000 3733000,-330000 5520000,1226000 765000,666000 1619000,1580000 2325000,2269000 1567000,1530000 3232000,2988000 5459000,3721000 1737000,572000 3631000,582000 5251000,-124000 2025000,-882000 3746000,-2985000 5524000,-3717000 2486000,-1023000 4990000,-361000 5919000,2258000 625000,1761000 258000,3622000 -464000,5080000 -721000,1455000 -1808000,2222000 -3169000,2980000 -5745000,3203000 -14120000,-231000 -19516000,-2343000 -1137000,-446000 -3443000,-1403000 -4774000,-1391000 -2143000,21000 -3598000,1613000 -4205000,1914000l0 12625000c3378000,576000 6833000,2020000 9090000,3674000 3956000,2898000 6138000,6845000 7363000,11773000 594000,2391000 1497000,4777000 3228000,6355000 519000,473000 1203000,931000 1965000,1243000 1667000,683000 3728000,630000 5563000,277000 1811000,-350000 3238000,-1014000 5006000,-1357000 2868000,-556000 6043000,-218000 8965000,38000 989000,86000 2054000,64000 2463000,-735000 328000,-642000 271000,-1725000 -812000,-2131000 -622000,-233000 -2081000,-354000 -2781000,-437000 -2081000,-246000 -3992000,-143000 -6032000,87000 -921000,104000 -1852000,274000 -2751000,460000 -810000,167000 -1893000,494000 -2657000,553000 -1249000,96000 -1665000,-611000 -1222000,-1723000 259000,-648000 998000,-1251000 1883000,-1340000 3710000,-374000 8326000,-787000 11941000,-138000 1530000,275000 3759000,864000 4688000,1674000 1986000,1732000 687000,5052000 -1894000,5745000 -1116000,300000 -1699000,87000 -2649000,-268000 -5417000,-2028000 -10155000,214000 -14493000,3044000 -1301000,849000 -2615000,1715000 -4155000,2257000 -3558000,1252000 -7009000,-232000 -8300000,-3634000 -701000,-1847000 -552000,-3563000 -798000,-5568000 -238000,-1934000 -629000,-3506000 -1209000,-5213000 -1319000,-3880000 -3939000,-7801000 -7173000,-10366000 -305000,-242000 -608000,-451000 -921000,-682000 -937000,-691000 -3062000,-1863000 -4308000,-2127000l0 3112000c833000,207000 2939000,1616000 3433000,2047000 1072000,937000 1770000,1623000 2660000,2874000 1462000,2055000 2648000,4947000 3243000,7770000 681000,3229000 -69000,6924000 987000,10026000 900000,2645000 3136000,4466000 5700000,5366000 3304000,1160000 6188000,436000 9107000,-745000 1266000,-513000 2524000,-1101000 3710000,-1764000 1147000,-641000 2452000,-1273000 3638000,-1893000 1046000,-546000 2688000,-1315000 3960000,-1527000 4793000,-799000 6204000,3583000 10653000,-514000 952000,-877000 1948000,-3149000 2796000,-2190000 1347000,1523000 -1437000,4260000 -2590000,4997000 -2544000,1628000 -5448000,1653000 -8371000,2639000 -5632000,1898000 -8934000,5432000 -11419000,10655000 -589000,1240000 -1009000,2679000 -1822000,3661000 -1683000,2034000 -3680000,1560000 -5598000,-64000 -1094000,-926000 -2064000,-2446000 -4173000,-4128000 -1861000,-1484000 -4749000,-3250000 -8105000,-2903000 -2416000,250000 -4190000,985000 -6130000,2180000l-1679000 1114000 0 3814000 1562000 -1228000c1684000,-1277000 3649000,-2385000 5963000,-2473000 6576000,-249000 8861000,7064000 13559000,8930000 1560000,619000 3233000,490000 4695000,-109000 1426000,-584000 2253000,-1393000 3057000,-2588000 849000,-1263000 1073000,-2396000 1555000,-4033000 466000,-1579000 908000,-2614000 1752000,-3891000 2255000,-3415000 6501000,-5121000 10408000,-6418000 4272000,-1419000 7806000,-2692000 9981000,-6896000 1597000,-3086000 788000,-6239000 -1155000,-8290000 -1053000,-1111000 -1721000,-1651000 -3096000,-2497000 -3686000,-2265000 -8422000,-3897000 -12978000,-3875000 -3092000,15000 -6917000,924000 -8867000,2346000 -1030000,751000 -1934000,1856000 -3149000,2440000 -2429000,1166000 -4450000,-1820000 -3926000,-3708000 238000,-858000 588000,-1242000 1024000,-1795000 879000,-1113000 1714000,-2064000 2668000,-2977000 1772000,-1699000 4486000,-3530000 8005000,-3150000 3482000,375000 7303000,2350000 9263000,1158000 3206000,-1950000 -816000,-9549000 3914000,-12850000 1562000,-1090000 2269000,-1173000 3830000,-1811000 3733000,-1527000 5484000,-4014000 6075000,-7934000 119000,-789000 96000,-1747000 743000,-2071000 566000,-284000 1550000,298000 2146000,466000 2741000,773000 4635000,708000 7234000,1175000 774000,139000 1658000,561000 1051000,1484000 -314000,478000 -1119000,881000 -1647000,1182000 -3034000,1730000 -5974000,2886000 -8926000,5068000 -1348000,997000 -2501000,2176000 -3579000,3449000 -1795000,2120000 -3928000,5058000 -4299000,8377000 -433000,3866000 1161000,6953000 3353000,9159000 1118000,1125000 2522000,2295000 3757000,3271000l1554000 1268000c465000,446000 940000,747000 1539000,1223000 519000,412000 1131000,850000 1534000,1293000 1652000,1816000 2003000,3787000 439000,5970000 -479000,669000 -836000,959000 -1313000,1512000 -1232000,1429000 -1356000,1583000 -2385000,3257000 -1456000,2367000 -2496000,5083000 -4255000,6983000 -1938000,2095000 -5475000,2512000 -7733000,3497000 -4064000,1772000 -6858000,5522000 -6771000,10045000 22000,1136000 282000,2470000 686000,3516000 128000,332000 332000,725000 420000,1021000l3600000 0c-95000,-192000 -656000,-805000 -1177000,-1826000 -317000,-621000 -559000,-1586000 -595000,-2378000 -157000,-3399000 2251000,-5747000 5003000,-7052000 1284000,-609000 2641000,-943000 4142000,-1897000 2477000,-1574000 4442000,-3303000 6043000,-5956000 380000,-629000 730000,-1197000 1097000,-1893000 1491000,-2826000 1020000,-2635000 3500000,-5577000 863000,-1024000 1817000,-2166000 2576000,-3397000 2229000,-3618000 493000,-5528000 -2402000,-7699000 -1235000,-926000 -2216000,-1602000 -3226000,-2802000 -1712000,-2036000 -2330000,-4011000 509000,-5519000 680000,-361000 1287000,-634000 1989000,-1059000 2529000,-1531000 4939000,-3791000 7959000,-4129000 1909000,-213000 3296000,712000 4513000,1435000 638000,378000 1174000,779000 1849000,1144000 705000,381000 1291000,704000 1939000,1100000 1285000,787000 2266000,1691000 2972000,3062000 1537000,2987000 -677000,8203000 -2281000,6817000 -824000,-712000 174000,-2781000 -1240000,-6285000 -577000,-1431000 -1562000,-2628000 -2611000,-3420000 -1030000,-778000 -2818000,-1563000 -4392000,-1643000 -2589000,-130000 -4544000,1278000 -6288000,2683000 -508000,409000 -1180000,975000 -1621000,1421000 -839000,846000 -2180000,2409000 -1206000,4128000 1512000,2669000 6837000,3313000 6239000,8649000 -160000,1422000 -976000,3640000 301000,4949000 479000,491000 1284000,882000 2079000,959000 1816000,174000 3296000,-939000 4385000,-1630000 1326000,-841000 3842000,-2850000 4894000,-4072000 588000,-684000 780000,-860000 1394000,-1648000 1619000,-2080000 3187000,-5324000 3515000,-8543000 268000,-2632000 -859000,-4768000 -2646000,-6265000 -637000,-534000 -1096000,-803000 -1804000,-1239000 -2294000,-1412000 -4793000,-3512000 -7843000,-4211000 -4702000,-1078000 -9286000,2354000 -12883000,4740000 -1111000,736000 -2577000,1673000 -4032000,1990000 -1323000,289000 -2458000,116000 -3143000,-1069000 -1091000,-1891000 103000,-4213000 920000,-5737000 666000,-1244000 1530000,-2430000 2470000,-3559000 1859000,-2231000 4145000,-3840000 6579000,-5435000 599000,-393000 1258000,-727000 1892000,-1101000 684000,-404000 1257000,-661000 1970000,-1063000 1262000,-711000 2574000,-1452000 3787000,-2248000 1217000,-798000 2758000,-1567000 3134000,-2894000 451000,-1590000 -716000,-2959000 -2234000,-3510000 -3093000,-1125000 -7215000,-546000 -10290000,-1773000 -688000,-274000 -1388000,-650000 -1974000,-1013000 -614000,-380000 -1263000,-819000 -1284000,-1778000 -31000,-1406000 1928000,-1560000 3507000,-2494000 1372000,-811000 2285000,-1541000 3358000,-2665000 957000,-1003000 1811000,-2107000 2712000,-3322000 472000,-636000 793000,-1151000 1292000,-1697000 2382000,-2613000 6576000,-4056000 6852000,-8193000 116000,-1735000 -463000,-3595000 -951000,-5074000l-1467000 -4554000 -3095000 0c113000,403000 336000,849000 496000,1263000 1225000,3163000 2764000,6895000 913000,10067000 -992000,1698000 -2339000,2383000 -3650000,3598000 -3977000,3685000 -5695000,8660000 -11451000,10292000 -3068000,870000 -6344000,347000 -9329000,-604000 -965000,-307000 -1990000,-649000 -3158000,-475000 -2038000,302000 -2954000,2072000 -2970000,4301000 -23000,3142000 110000,3629000 -304000,6921000 -254000,2022000 -810000,4005000 -1483000,5758000 -677000,1763000 -1543000,3242000 -2530000,4719000 -2218000,3319000 -6945000,4081000 -10698000,3345000 -2923000,-573000 -6585000,-2047000 -9081000,-3586000l-1161000 -674000c-694000,-382000 -1528000,-899000 -2246000,-1346000 -1407000,-875000 -3726000,-2348000 -4844000,-317000 -1110000,2017000 1378000,2972000 2889000,3815000 2387000,1331000 4719000,2519000 7286000,3623000 4224000,1817000 7749000,2289000 12349000,1913000 4014000,-327000 7858000,-4000 10431000,-4055000 485000,-763000 833000,-1472000 1228000,-2374000 866000,-1975000 1096000,-2806000 2869000,-4377000 2216000,-1962000 4366000,-2646000 4825000,-6071000 147000,-1091000 17000,-2242000 -171000,-3283000 -166000,-914000 -689000,-2236000 -210000,-3021000 449000,-737000 1884000,-872000 2838000,-666000 3482000,756000 3606000,6657000 688000,9777000 -2159000,2309000 -3957000,1923000 -6756000,4147000 -2266000,1801000 -3261000,4428000 -3451000,7386000 -77000,1201000 -5000,2198000 -400000,3258000 -826000,2217000 -3008000,1662000 -5008000,982000 -1972000,-669000 -4093000,-888000 -6238000,-268000 -3290000,950000 -4383000,2445000 -7061000,3776000 -3121000,1552000 -4487000,-1883000 -6333000,-3794000 -4558000,-4723000 -9458000,-4513000 -11950000,-6144000 -2963000,-1940000 -1966000,-5393000 352000,-6939000 1806000,-1204000 3180000,-1498000 5661000,-848000 3847000,1008000 7085000,2625000 10775000,3724000 2093000,623000 4021000,1011000 6410000,696000 3625000,-479000 7008000,-2666000 8635000,-5839000 865000,-1688000 1363000,-3831000 928000,-6062000 -825000,-4227000 -4850000,-6326000 -8785000,-4951000 -3936000,1375000 -8786000,6960000 -15046000,165000 -1304000,-1415000 -2130000,-2273000 -3336000,-3912000 -367000,-498000 -1427000,-1651000 -712000,-2460000 1497000,-1695000 2248000,1685000 6524000,3506000 3958000,1685000 7804000,1196000 11122000,-1520000 3446000,-2819000 3627000,-6556000 3770000,-10722000 130000,-3775000 148000,-7751000 1314000,-11364000 142000,-439000 356000,-940000 466000,-1360000l-3091000 0c-127000,616000 -315000,1129000 -421000,1798000 -337000,2128000 -249000,4173000 -184000,6336000 158000,5251000 -355000,10036000 -4022000,13699000 -1382000,1380000 -3697000,2768000 -6340000,2128000 -2319000,-561000 -3985000,-2225000 -5011000,-3845000 -1062000,-1678000 -2211000,-3760000 -3019000,-5783000l-1197000 -3221000c-877000,-2400000 -2271000,-8905000 -1798000,-11112000l-2564000 0c-231000,3975000 1198000,6626000 2321000,10049000 330000,1007000 718000,2102000 859000,3250000 515000,4200000 -2209000,9727000 -5914000,10392000z"/>
   <path class="fil1 str0" d="M73708000 36854000c-713000,3261000 -3494000,5592000 -6066000,7434000 -5350000,3830000 -8133000,6170000 -12874000,10758000 -945000,915000 -2967000,3158000 -3956000,1080000 -500000,-1052000 101000,-1853000 594000,-2452000 276000,-335000 478000,-545000 817000,-895000 3322000,-3428000 6183000,-5632000 10241000,-8300000 2244000,-1475000 6029000,-3903000 7602000,-5896000 813000,-1031000 2147000,-3382000 1143000,-4905000 -510000,-775000 -2089000,-1706000 -2988000,-2048000 -470000,-178000 -832000,-246000 -808000,-861000 1045000,-646000 2995000,-461000 4149000,179000 215000,119000 333000,196000 507000,324000 1462000,1073000 2106000,3448000 1639000,5582000zm-11775000 14735000c104000,-737000 1208000,-1775000 1555000,-2156000 1424000,-1563000 4679000,-3356000 6425000,-4640000 2758000,-2028000 5260000,-5413000 5641000,-9087000 465000,-4481000 -2715000,-7330000 -7366000,-7275000 -3269000,39000 -6470000,2066000 -7528000,1418000 -311000,-190000 -651000,-785000 -348000,-1300000 353000,-597000 1537000,-1164000 2210000,-1438000 2909000,-1185000 6230000,-1725000 9438000,-714000 2548000,803000 4786000,2578000 5693000,5321000 744000,2250000 802000,3969000 192000,6336000 -598000,2319000 -2587000,5214000 -4167000,6905000 -1896000,2029000 -3855000,3416000 -6370000,4640000 -990000,482000 -4380000,1936000 -5375000,1990000zm-20629000 54669000l29901000 0c-463000,-312000 -3071000,-540000 -3841000,-654000 -1283000,-190000 -2615000,-408000 -3929000,-622000 -2987000,-487000 -5331000,-549000 -8375000,-178000 -1357000,165000 -2716000,310000 -4073000,453000 -1601000,168000 -1923000,-847000 -2406000,-2031000 -211000,-518000 -459000,-1041000 -1006000,-1251000 -943000,-361000 -2232000,389000 -2667000,1698000 -98000,296000 -164000,591000 -214000,886000l-147000 903000c-5000,13000 -16000,32000 -20000,42000 -5000,11000 -13000,29000 -22000,42000 -1068000,-352000 -3674000,-4099000 -722000,-6482000 1411000,-1139000 2867000,-1051000 6091000,-3872000 1496000,-1309000 2358000,-2464000 3495000,-3973000 951000,-1259000 2369000,-3587000 3087000,-4385000 845000,-939000 2010000,-1637000 3591000,-1095000 3452000,1182000 1732000,4911000 1508000,7237000 -302000,3135000 334000,6103000 1931000,7970000 839000,982000 1616000,1373000 3120000,1856000 2816000,905000 5446000,1023000 8153000,1814000 977000,285000 2862000,1032000 3381000,1642000l5637000 0c-172000,-139000 -712000,-416000 -944000,-539000 -6165000,-3271000 -5187000,-2807000 -12382000,-4377000 -5435000,-1187000 -6895000,-6846000 -5467000,-11845000 1334000,-4666000 4223000,-7508000 7882000,-10435000 2029000,-1624000 4876000,-3629000 6575000,-5597000 899000,-1041000 1769000,-2146000 2450000,-3689000 1346000,-3047000 1261000,-7178000 -263000,-10052000 -370000,-700000 -703000,-1310000 -1136000,-1904000 -507000,-698000 -862000,-1107000 -1375000,-1668000 -930000,-1019000 -1850000,-1899000 -2569000,-3571000 -1448000,-3370000 -248000,-6686000 1039000,-9801000 1587000,-3842000 2939000,-8098000 1566000,-12610000 -898000,-2951000 -2326000,-3310000 -4249000,-4886000 -820000,-672000 -2581000,-2224000 -1235000,-3849000 1491000,-1802000 5379000,-2006000 7135000,-8145000 230000,-804000 348000,-1664000 584000,-2455000 1564000,-5223000 6633000,-4920000 10762000,-2359000 1048000,650000 1729000,1062000 2783000,1815000 1604000,1146000 4086000,2677000 6013000,3173000 2195000,565000 3367000,250000 5312000,-292000l0 -3116000c-274000,81000 -699000,292000 -998000,407000 -5144000,1970000 -8854000,-929000 -12456000,-3743000 -468000,-366000 -991000,-831000 -1466000,-1191000 -2153000,-1632000 -4578000,-2916000 -8164000,-2363000 -1361000,210000 -3591000,880000 -3905000,-775000 -465000,-2452000 2381000,-2085000 2943000,-2375000l-7274000 0c250000,4922000 3806000,9621000 1552000,14497000 -489000,1059000 -1098000,1829000 -1794000,2635000 -1444000,1675000 -6033000,5175000 -7778000,5350000 -761000,77000 -1207000,-283000 -1516000,-716000 -1390000,-1948000 874000,-2918000 2129000,-3609000 898000,-495000 2046000,-910000 2988000,-1387000 1050000,-532000 1829000,-1143000 2381000,-1986000 1275000,-1947000 1054000,-5024000 515000,-7447000 -520000,-2340000 -1264000,-4906000 -1446000,-7337000l-2884000 0 1467000 4554000c488000,1479000 1067000,3339000 951000,5074000 -276000,4137000 -4470000,5580000 -6852000,8193000 -499000,546000 -820000,1061000 -1292000,1697000 -901000,1215000 -1755000,2319000 -2712000,3322000 -1073000,1124000 -1986000,1854000 -3358000,2665000 -1579000,934000 -3538000,1088000 -3507000,2494000 21000,959000 670000,1398000 1284000,1778000 586000,363000 1286000,739000 1974000,1013000 3075000,1227000 7197000,648000 10290000,1773000 1518000,551000 2685000,1920000 2234000,3510000 -376000,1327000 -1917000,2096000 -3134000,2894000 -1213000,796000 -2525000,1537000 -3787000,2248000 -713000,402000 -1286000,659000 -1970000,1063000 -634000,374000 -1293000,708000 -1892000,1101000 -2434000,1595000 -4720000,3204000 -6579000,5435000 -940000,1129000 -1804000,2315000 -2470000,3559000 -817000,1524000 -2011000,3846000 -920000,5737000 685000,1185000 1820000,1358000 3143000,1069000 1455000,-317000 2921000,-1254000 4032000,-1990000 3597000,-2386000 8181000,-5818000 12883000,-4740000 3050000,699000 5549000,2799000 7843000,4211000 708000,436000 1167000,705000 1804000,1239000 1787000,1497000 2914000,3633000 2646000,6265000 -328000,3219000 -1896000,6463000 -3515000,8543000 -614000,788000 -806000,964000 -1394000,1648000 -1052000,1222000 -3568000,3231000 -4894000,4072000 -1089000,691000 -2569000,1804000 -4385000,1630000 -795000,-77000 -1600000,-468000 -2079000,-959000 -1277000,-1309000 -461000,-3527000 -301000,-4949000 598000,-5336000 -4727000,-5980000 -6239000,-8649000 -974000,-1719000 367000,-3282000 1206000,-4128000 441000,-446000 1113000,-1012000 1621000,-1421000 1744000,-1405000 3699000,-2813000 6288000,-2683000 1574000,80000 3362000,865000 4392000,1643000 1049000,792000 2034000,1989000 2611000,3420000 1414000,3504000 416000,5573000 1240000,6285000 1604000,1386000 3818000,-3830000 2281000,-6817000 -706000,-1371000 -1687000,-2275000 -2972000,-3062000 -648000,-396000 -1234000,-719000 -1939000,-1100000 -675000,-365000 -1211000,-766000 -1849000,-1144000 -1217000,-723000 -2604000,-1648000 -4513000,-1435000 -3020000,338000 -5430000,2598000 -7959000,4129000 -702000,425000 -1309000,698000 -1989000,1059000 -2839000,1508000 -2221000,3483000 -509000,5519000 1010000,1200000 1991000,1876000 3226000,2802000 2895000,2171000 4631000,4081000 2402000,7699000 -759000,1231000 -1713000,2373000 -2576000,3397000 -2480000,2942000 -2009000,2751000 -3500000,5577000 -367000,696000 -717000,1264000 -1097000,1893000 -1601000,2653000 -3566000,4382000 -6043000,5956000 -1501000,954000 -2858000,1288000 -4142000,1897000 -2752000,1305000 -5160000,3653000 -5003000,7052000 36000,792000 278000,1757000 595000,2378000 521000,1021000 1082000,1634000 1177000,1826000z"/>
   <path class="fil1 str0" d="M65990000 16000l-2163000 0 840000 1141000c803000,1031000 1556000,2819000 1769000,4198000 383000,2478000 -156000,4870000 -1334000,6407000 -794000,1035000 -2619000,2594000 -3755000,4156000l-3526000 4384000c-3027000,3338000 -5779000,5653000 -10791000,3919000 -1023000,-354000 -1848000,-817000 -2841000,-1144000 -2227000,-736000 -4581000,-798000 -6834000,-111000 -546000,167000 -989000,304000 -1481000,511000 -363000,153000 -1005000,492000 -1421000,475000 290000,-1960000 2555000,-3117000 4636000,-3418000 1261000,-183000 2425000,-118000 3643000,174000 2436000,584000 5920000,3186000 9346000,2321000 3674000,-927000 6079000,-5166000 8054000,-7991000 673000,-963000 1070000,-1397000 1783000,-2260000 312000,-379000 625000,-701000 927000,-1067000 1781000,-2155000 2503000,-4734000 1197000,-7604000 -669000,-1471000 -1590000,-2354000 -2757000,-3272000l-1181000 -819000 -14380000 0c489000,332000 4186000,1435000 4932000,1539000 3233000,451000 7408000,-1765000 10757000,1199000 877000,776000 2280000,2316000 2328000,4069000 57000,2090000 -1801000,3963000 -2933000,2514000 -498000,-639000 -811000,-3421000 -1901000,-4519000 -1330000,-1341000 -3038000,-1031000 -5058000,-495000 -1998000,530000 -3696000,66000 -5282000,-670000 -1524000,-706000 -2907000,-1446000 -4889000,-1536000 -2000000,-90000 -3616000,722000 -4748000,1672000 -3386000,2844000 -1907000,7394000 -2692000,10154000 -324000,1137000 -1378000,1030000 -2024000,629000 -741000,-459000 -818000,-1328000 -777000,-2440000 128000,-3527000 786000,-7186000 3080000,-9759000 1613000,-1810000 3733000,-2143000 4061000,-2357000l-4470000 0c-172000,318000 -376000,510000 -601000,847000 -209000,313000 -387000,540000 -583000,862000 -2153000,3541000 -3101000,6988000 -2818000,11295000 113000,1713000 639000,3190000 1932000,3720000 702000,288000 1712000,246000 2383000,-74000 1516000,-721000 1334000,-2652000 1532000,-4134000 340000,-2526000 189000,-4858000 1619000,-6883000 650000,-920000 2109000,-1866000 3578000,-2067000 1763000,-243000 3201000,500000 4365000,1281000 1309000,877000 1992000,1563000 3880000,1818000 1864000,251000 3442000,-438000 5288000,309000 1335000,540000 2083000,1641000 2177000,3430000 130000,2472000 -724000,4678000 -1809000,6680000 -844000,1558000 -2588000,3396000 -4339000,4178000 -3397000,1515000 -5745000,-1080000 -8365000,-2115000 -3929000,-1551000 -7484000,68000 -10453000,2555000 -505000,423000 -1022000,781000 -1600000,1222000 -1043000,798000 -2164000,1538000 -3393000,2303000 -1007000,626000 -2476000,1424000 -3712000,1935000 -1359000,561000 -2703000,1064000 -4278000,1411000 -819000,181000 -1604000,322000 -2421000,416000 -781000,90000 -1958000,241000 -2008000,-712000 -40000,-769000 1085000,-970000 1717000,-1180000 4649000,-1547000 10694000,-2658000 11844000,-8036000 711000,-3323000 -724000,-5815000 -159000,-10605000 261000,-2202000 1015000,-4628000 1953000,-6576000l944000 -1880000 -2381000 0c-110000,420000 -324000,921000 -466000,1360000 -1166000,3613000 -1184000,7589000 -1314000,11364000 -143000,4166000 -324000,7903000 -3770000,10722000 -3318000,2716000 -7164000,3205000 -11122000,1520000 -4276000,-1821000 -5027000,-5201000 -6524000,-3506000 -715000,809000 345000,1962000 712000,2460000 1206000,1639000 2032000,2497000 3336000,3912000 6260000,6795000 11110000,1210000 15046000,-165000 3935000,-1375000 7960000,724000 8785000,4951000 435000,2231000 -63000,4374000 -928000,6062000 -1627000,3173000 -5010000,5360000 -8635000,5839000 -2389000,315000 -4317000,-73000 -6410000,-696000 -3690000,-1099000 -6928000,-2716000 -10775000,-3724000 -2481000,-650000 -3855000,-356000 -5661000,848000 -2318000,1546000 -3315000,4999000 -352000,6939000 2492000,1631000 7392000,1421000 11950000,6144000 1846000,1911000 3212000,5346000 6333000,3794000 2678000,-1331000 3771000,-2826000 7061000,-3776000 2145000,-620000 4266000,-401000 6238000,268000 2000000,680000 4182000,1235000 5008000,-982000 395000,-1060000 323000,-2057000 400000,-3258000 190000,-2958000 1185000,-5585000 3451000,-7386000 2799000,-2224000 4597000,-1838000 6756000,-4147000 2918000,-3120000 2794000,-9021000 -688000,-9777000 -954000,-206000 -2389000,-71000 -2838000,666000 -479000,785000 44000,2107000 210000,3021000 188000,1041000 318000,2192000 171000,3283000 -459000,3425000 -2609000,4109000 -4825000,6071000 -1773000,1571000 -2003000,2402000 -2869000,4377000 -395000,902000 -743000,1611000 -1228000,2374000 -2573000,4051000 -6417000,3728000 -10431000,4055000 -4600000,376000 -8125000,-96000 -12349000,-1913000 -2567000,-1104000 -4899000,-2292000 -7286000,-3623000 -1511000,-843000 -3999000,-1798000 -2889000,-3815000 1118000,-2031000 3437000,-558000 4844000,317000 718000,447000 1552000,964000 2246000,1346000l1161000 674000c2496000,1539000 6158000,3013000 9081000,3586000 3753000,736000 8480000,-26000 10698000,-3345000 987000,-1477000 1853000,-2956000 2530000,-4719000 673000,-1753000 1229000,-3736000 1483000,-5758000 414000,-3292000 281000,-3779000 304000,-6921000 16000,-2229000 932000,-3999000 2970000,-4301000 1168000,-174000 2193000,168000 3158000,475000 2985000,951000 6261000,1474000 9329000,604000 5756000,-1632000 7474000,-6607000 11451000,-10292000 1311000,-1215000 2658000,-1900000 3650000,-3598000 1851000,-3172000 312000,-6904000 -913000,-10067000 -160000,-414000 -383000,-860000 -496000,-1263000z"/>
   <path class="fil0 str0" d="M93631000 106258000l1467000 0c299000,-206000 629000,-170000 957000,-851000 778000,-1610000 -702000,-2572000 -1909000,-3303000 -744000,-450000 -1483000,-997000 -2178000,-1529000 -4232000,-3242000 -6307000,-7312000 -4527000,-12859000 577000,-1797000 1659000,-3489000 2741000,-4671000 574000,-627000 1258000,-1258000 1934000,-1773000 1432000,-1093000 3140000,-1995000 4871000,-2548000 1801000,-577000 7267000,-1593000 9271000,-1892000l0 -3611000c-731000,115000 -4924000,1163000 -5784000,1405000 -4433000,1249000 -7387000,2372000 -10864000,5301000 -856000,722000 -1937000,1957000 -2624000,2854000 -3748000,4892000 -4000000,10622000 -344000,16033000 1007000,1490000 2501000,3025000 3081000,3891000 126000,188000 41000,27000 115000,209000 -769000,-170000 -2388000,-1573000 -3003000,-2135000 -1964000,-1794000 -3621000,-4426000 -4226000,-7123000 -1150000,-5118000 902000,-9438000 3565000,-12240000 1606000,-1690000 2720000,-2333000 4585000,-3606000 1734000,-1183000 3182000,-2271000 4831000,-3411000 2669000,-1846000 4695000,-3205000 7683000,-4603000 730000,-342000 2160000,-980000 2985000,-1159000l0 -3833000c-305000,181000 -1301000,1017000 -1882000,1392000 -617000,397000 -1325000,869000 -2079000,1187000 -2899000,1223000 -4889000,554000 -7384000,-1130000 -2955000,-1996000 -3849000,-5828000 -3602000,-9354000 70000,-998000 145000,-2187000 -5000,-3154000 -345000,-2211000 -1118000,-2788000 -2866000,-3644000 -1602000,-784000 -2369000,-2044000 -2692000,-3836000 -312000,-1731000 -118000,-4376000 47000,-6184000 349000,-3839000 2436000,-6663000 5302000,-7754000 1790000,-682000 3896000,-450000 5489000,265000 1474000,662000 2620000,1849000 3367000,3166000 968000,1708000 982000,3204000 1197000,5323000 451000,4449000 810000,9075000 3529000,12807000 252000,346000 1369000,1639000 1579000,1752000l0 -4083000c-1250000,-773000 -2100000,-4966000 -2302000,-6461000 -655000,-4852000 321000,-10823000 -3349000,-14142000 -1540000,-1392000 -3608000,-2422000 -6356000,-2385000 -1436000,19000 -2505000,632000 -3846000,28000 -928000,-418000 -1707000,-1357000 -2122000,-2253000 -1072000,-2314000 -745000,-5022000 -416000,-7707000 164000,-1338000 340000,-2586000 404000,-3958000 31000,-675000 60000,-1447000 -287000,-1925000 -567000,-781000 -1847000,-795000 -2563000,897000 -782000,1844000 -1170000,2949000 -1439000,5097000 -366000,2914000 96000,5224000 611000,7857000 1732000,8844000 -4188000,16272000 -1427000,22678000 1080000,2504000 2220000,2952000 4178000,4562000 2021000,1661000 1754000,3941000 1814000,6928000 76000,3789000 2430000,6321000 -881000,10460000 -333000,416000 -691000,749000 -1073000,1084000 -214000,187000 -387000,340000 -592000,519000 -476000,418000 -1338000,1021000 -1850000,1414000 -1564000,1201000 -1998000,1456000 -3617000,2911000 -3167000,2845000 -5995000,6034000 -7068000,10414000 -287000,1170000 -685000,2690000 472000,3305000 511000,271000 1286000,297000 1712000,-61000 864000,-726000 888000,-2047000 1206000,-3170000 748000,-2640000 2028000,-5019000 3831000,-7069000 366000,-416000 721000,-821000 1058000,-1157000 335000,-335000 729000,-668000 1104000,-1054000l1175000 -1038000c404000,-325000 757000,-637000 1196000,-962000 2971000,-2201000 3360000,-2300000 5851000,-5050000 209000,-230000 346000,-336000 534000,-572000 147000,-185000 296000,-399000 436000,-619000 265000,-417000 675000,-1052000 1283000,-854000 473000,154000 879000,652000 876000,1294000 -6000,1166000 -1198000,2036000 -1847000,2532000 -1367000,1046000 -3661000,2932000 -4943000,3799000l-2523000 1850000c-1656000,1210000 -2239000,1471000 -3473000,3110000 -254000,337000 -616000,910000 -837000,1325000 -508000,954000 -936000,1969000 -1252000,3108000 -1287000,4625000 -752000,10082000 2596000,13644000 2476000,2636000 5814000,4931000 9366000,5907000 286000,79000 1617000,353000 1733000,415000z"/>
   <path class="fil0 str0" d="M83777000 106258000l6238000 0 -2337000 -1056000c-2883000,-1245000 -7467000,-4291000 -10872000,-6013000 -4588000,-2320000 -11097000,-2575000 -8101000,-10682000 795000,-2153000 2610000,-4338000 4188000,-5930000 570000,-575000 1115000,-1095000 1660000,-1660000 292000,-303000 525000,-537000 852000,-864000 1467000,-1470000 1937000,-1882000 3573000,-3178000 1711000,-1356000 2986000,-2231000 4649000,-3761000 1808000,-1665000 3135000,-3811000 3568000,-6491000 329000,-2036000 120000,-4256000 -457000,-6030000 -589000,-1815000 -1320000,-3047000 -2354000,-4395000 -261000,-340000 -531000,-599000 -808000,-909000 -2039000,-2284000 -3661000,-4675000 -3846000,-7906000 -240000,-4184000 1970000,-6409000 2903000,-10625000 957000,-4320000 -90000,-7860000 -2048000,-10790000 -456000,-682000 -976000,-1160000 -1480000,-1901000 -1405000,-2065000 -68000,-2993000 1123000,-4375000 519000,-602000 1020000,-1221000 1496000,-1880000 1106000,-1531000 1643000,-2632000 2385000,-4366000 650000,-1522000 1319000,-3449000 3556000,-3141000 2515000,346000 2461000,2235000 2286000,4275000 -333000,3866000 -74000,7897000 3407000,9953000 714000,422000 1492000,685000 2397000,983000 3304000,1090000 5928000,2914000 7651000,5795000 2187000,3658000 1599000,7314000 2173000,11347000 72000,505000 449000,2255000 679000,2601000l0 -16756000 -1525000 -1508000c-2544000,-2543000 -4912000,-3085000 -7587000,-4474000 -780000,-404000 -1197000,-672000 -1861000,-1128000 -1735000,-1192000 -3369000,-3809000 -2828000,-6069000 171000,-711000 579000,-1559000 1046000,-1946000 1375000,-1137000 2665000,910000 3799000,1624000 1263000,795000 2399000,1631000 3938000,2104000 813000,250000 1790000,406000 2740000,277000 1241000,-170000 1467000,-459000 2278000,-713000l0 -3498000c-1945000,542000 -3117000,857000 -5312000,292000 -1927000,-496000 -4409000,-2027000 -6013000,-3173000 -1054000,-753000 -1735000,-1165000 -2783000,-1815000 -4129000,-2561000 -9198000,-2864000 -10762000,2359000 -236000,791000 -354000,1651000 -584000,2455000 -1756000,6139000 -5644000,6343000 -7135000,8145000 -1346000,1625000 415000,3177000 1235000,3849000 1923000,1576000 3351000,1935000 4249000,4886000 1373000,4512000 21000,8768000 -1566000,12610000 -1287000,3115000 -2487000,6431000 -1039000,9801000 719000,1672000 1639000,2552000 2569000,3571000 513000,561000 868000,970000 1375000,1668000 433000,594000 766000,1204000 1136000,1904000 1524000,2874000 1609000,7005000 263000,10052000 -681000,1543000 -1551000,2648000 -2450000,3689000 -1699000,1968000 -4546000,3973000 -6575000,5597000 -3659000,2927000 -6548000,5769000 -7882000,10435000 -1428000,4999000 32000,10658000 5467000,11845000 7195000,1570000 6217000,1106000 12382000,4377000 232000,123000 772000,400000 944000,539000z"/>
   <path class="fil1 str0" d="M48773000 46552000c-145000,659000 -744000,1555000 -1039000,2178000 -350000,741000 -669000,1531000 -934000,2332000 -566000,1717000 -922000,3423000 -1231000,5298000 -322000,1951000 -506000,3553000 -1601000,4871000 -1010000,1215000 -2591000,1988000 -4734000,1595000 -1484000,-271000 -2737000,-1076000 -4952000,-1514000 -1867000,-370000 -4035000,-351000 -5731000,267000 -2019000,735000 -3527000,1835000 -4855000,3231000 -1988000,2089000 -2409000,135000 -2041000,-761000 325000,-791000 1473000,-1976000 2153000,-2669000 2894000,-2952000 6852000,-3876000 10938000,-2579000 3121000,990000 7090000,3793000 8369000,-1353000 232000,-931000 336000,-1886000 409000,-2873000 75000,-1016000 204000,-1970000 237000,-2988000 66000,-2078000 322000,-3834000 1433000,-5067000 369000,-409000 1130000,-1168000 1914000,-1349000 920000,-213000 1886000,373000 1665000,1381000zm-48757000 50210000l0 3842000c569000,-493000 1394000,-2981000 4676000,-4553000 4015000,-1923000 7038000,-69000 9310000,3027000 1273000,1734000 4401000,5253000 6142000,6640000 169000,135000 492000,372000 608000,540000l10088000 0c-269000,-1630000 -521000,-2761000 -337000,-4542000 238000,-2317000 1085000,-4572000 2326000,-6415000 675000,-1001000 1369000,-1990000 2188000,-2846000l903000 -980000c130000,-123000 167000,-162000 301000,-306000 601000,-642000 1298000,-1187000 2067000,-1695000 2542000,-1676000 4336000,-2111000 6734000,-3343000 1451000,-746000 1819000,-905000 3247000,-1785000 2175000,-1340000 3939000,-2962000 5169000,-4843000 1121000,-1715000 2617000,-5105000 1532000,-7725000 -464000,-1118000 -1372000,-2115000 -2193000,-2787000 -829000,-680000 -1880000,-1523000 -2864000,-2172000 -1511000,-997000 -3194000,-2052000 -3730000,-3799000 -231000,-749000 -241000,-1382000 92000,-2080000 844000,111000 1252000,1371000 2487000,2548000 1045000,998000 1284000,1327000 2627000,2408000l2797000 2238000c1065000,847000 1745000,1354000 2517000,2577000 2663000,4219000 -2340000,11046000 -5088000,13663000l-1298000 1192000c-2171000,1876000 -5167000,3623000 -7647000,5021000 -872000,491000 -2490000,1327000 -3247000,1846000 -3433000,2348000 -6400000,7350000 -5639000,11820000 142000,838000 367000,1301000 560000,2005000l3360000 0c-88000,-296000 -292000,-689000 -420000,-1021000 -404000,-1046000 -664000,-2380000 -686000,-3516000 -87000,-4523000 2707000,-8273000 6771000,-10045000 2258000,-985000 5795000,-1402000 7733000,-3497000 1759000,-1900000 2799000,-4616000 4255000,-6983000 1029000,-1674000 1153000,-1828000 2385000,-3257000 477000,-553000 834000,-843000 1313000,-1512000 1564000,-2183000 1213000,-4154000 -439000,-5970000 -403000,-443000 -1015000,-881000 -1534000,-1293000 -599000,-476000 -1074000,-777000 -1539000,-1223000l-1554000 -1268000c-1235000,-976000 -2639000,-2146000 -3757000,-3271000 -2192000,-2206000 -3786000,-5293000 -3353000,-9159000 371000,-3319000 2504000,-6257000 4299000,-8377000 1078000,-1273000 2231000,-2452000 3579000,-3449000 2952000,-2182000 5892000,-3338000 8926000,-5068000 528000,-301000 1333000,-704000 1647000,-1182000 607000,-923000 -277000,-1345000 -1051000,-1484000 -2599000,-467000 -4493000,-402000 -7234000,-1175000 -596000,-168000 -1580000,-750000 -2146000,-466000 -647000,324000 -624000,1282000 -743000,2071000 -591000,3920000 -2342000,6407000 -6075000,7934000 -1561000,638000 -2268000,721000 -3830000,1811000 -4730000,3301000 -708000,10900000 -3914000,12850000 -1960000,1192000 -5781000,-783000 -9263000,-1158000 -3519000,-380000 -6233000,1451000 -8005000,3150000 -954000,913000 -1789000,1864000 -2668000,2977000 -436000,553000 -786000,937000 -1024000,1795000 -524000,1888000 1497000,4874000 3926000,3708000 1215000,-584000 2119000,-1689000 3149000,-2440000 1950000,-1422000 5775000,-2331000 8867000,-2346000 4556000,-22000 9292000,1610000 12978000,3875000 1375000,846000 2043000,1386000 3096000,2497000 1943000,2051000 2752000,5204000 1155000,8290000 -2175000,4204000 -5709000,5477000 -9981000,6896000 -3907000,1297000 -8153000,3003000 -10408000,6418000 -844000,1277000 -1286000,2312000 -1752000,3891000 -482000,1637000 -706000,2770000 -1555000,4033000 -804000,1195000 -1631000,2004000 -3057000,2588000 -1462000,599000 -3135000,728000 -4695000,109000 -4698000,-1866000 -6983000,-9179000 -13559000,-8930000 -2314000,88000 -4279000,1196000 -5963000,2473000l-1562000 1228000z"/>
   <path class="fil1 str0" d="M90015000 106258000l3616000 0c-116000,-62000 -1447000,-336000 -1733000,-415000 -3552000,-976000 -6890000,-3271000 -9366000,-5907000 -3348000,-3562000 -3883000,-9019000 -2596000,-13644000 316000,-1139000 744000,-2154000 1252000,-3108000 221000,-415000 583000,-988000 837000,-1325000 1234000,-1639000 1817000,-1900000 3473000,-3110000l2523000 -1850000c1282000,-867000 3576000,-2753000 4943000,-3799000 649000,-496000 1841000,-1366000 1847000,-2532000 3000,-642000 -403000,-1140000 -876000,-1294000 -608000,-198000 -1018000,437000 -1283000,854000 -140000,220000 -289000,434000 -436000,619000 -188000,236000 -325000,342000 -534000,572000 -2491000,2750000 -2880000,2849000 -5851000,5050000 -439000,325000 -792000,637000 -1196000,962000l-1175000 1038000c-375000,386000 -769000,719000 -1104000,1054000 -337000,336000 -692000,741000 -1058000,1157000 -1803000,2050000 -3083000,4429000 -3831000,7069000 -318000,1123000 -342000,2444000 -1206000,3170000 -426000,358000 -1201000,332000 -1712000,61000 -1157000,-615000 -759000,-2135000 -472000,-3305000 1073000,-4380000 3901000,-7569000 7068000,-10414000 1619000,-1455000 2053000,-1710000 3617000,-2911000 512000,-393000 1374000,-996000 1850000,-1414000 205000,-179000 378000,-332000 592000,-519000 382000,-335000 740000,-668000 1073000,-1084000 3311000,-4139000 957000,-6671000 881000,-10460000 -60000,-2987000 207000,-5267000 -1814000,-6928000 -1958000,-1610000 -3098000,-2058000 -4178000,-4562000 -2761000,-6406000 3159000,-13834000 1427000,-22678000 -515000,-2633000 -977000,-4943000 -611000,-7857000 269000,-2148000 657000,-3253000 1439000,-5097000 716000,-1692000 1996000,-1678000 2563000,-897000 347000,478000 318000,1250000 287000,1925000 -64000,1372000 -240000,2620000 -404000,3958000 -329000,2685000 -656000,5393000 416000,7707000 415000,896000 1194000,1835000 2122000,2253000 1341000,604000 2410000,-9000 3846000,-28000 2748000,-37000 4816000,993000 6356000,2385000 3670000,3319000 2694000,9290000 3349000,14142000 202000,1495000 1052000,5688000 2302000,6461000l0 -6298000c-230000,-346000 -607000,-2096000 -679000,-2601000 -574000,-4033000 14000,-7689000 -2173000,-11347000 -1723000,-2881000 -4347000,-4705000 -7651000,-5795000 -905000,-298000 -1683000,-561000 -2397000,-983000 -3481000,-2056000 -3740000,-6087000 -3407000,-9953000 175000,-2040000 229000,-3929000 -2286000,-4275000 -2237000,-308000 -2906000,1619000 -3556000,3141000 -742000,1734000 -1279000,2835000 -2385000,4366000 -476000,659000 -977000,1278000 -1496000,1880000 -1191000,1382000 -2528000,2310000 -1123000,4375000 504000,741000 1024000,1219000 1480000,1901000 1958000,2930000 3005000,6470000 2048000,10790000 -933000,4216000 -3143000,6441000 -2903000,10625000 185000,3231000 1807000,5622000 3846000,7906000 277000,310000 547000,569000 808000,909000 1034000,1348000 1765000,2580000 2354000,4395000 577000,1774000 786000,3994000 457000,6030000 -433000,2680000 -1760000,4826000 -3568000,6491000 -1663000,1530000 -2938000,2405000 -4649000,3761000 -1636000,1296000 -2106000,1708000 -3573000,3178000 -327000,327000 -560000,561000 -852000,864000 -545000,565000 -1090000,1085000 -1660000,1660000 -1578000,1592000 -3393000,3777000 -4188000,5930000 -2996000,8107000 3513000,8362000 8101000,10682000 3405000,1722000 7989000,4768000 10872000,6013000l2337000 1056000z"/>
   <path class="fil1 str0" d="M38406000 80306000c-285000,629000 -791000,755000 -1336000,1082000 -540000,325000 -1090000,656000 -1533000,964000 -2252000,1567000 -3541000,2653000 -5611000,4237000 -3180000,2435000 -6152000,4749000 -10553000,4012000 -2502000,-419000 -5033000,-1511000 -6958000,-2940000 -1448000,-1076000 -253000,-2603000 1257000,-2312000 920000,178000 1866000,808000 3826000,1107000 7980000,1217000 13397000,-5322000 17475000,-6825000 1107000,-408000 4101000,-801000 3433000,675000zm-38390000 -22418000c532000,181000 1451000,858000 1925000,1181000 1765000,1202000 3067000,3396000 3939000,5357000 1688000,3794000 2881000,11457000 2299000,15965000 -604000,4684000 -1779000,7435000 -5989000,9507000 -520000,256000 -1599000,731000 -2174000,865000l0 2185000 1679000 -1114000c1940000,-1195000 3714000,-1930000 6130000,-2180000 3356000,-347000 6244000,1419000 8105000,2903000 2109000,1682000 3079000,3202000 4173000,4128000 1918000,1624000 3915000,2098000 5598000,64000 813000,-982000 1233000,-2421000 1822000,-3661000 2485000,-5223000 5787000,-8757000 11419000,-10655000 2923000,-986000 5827000,-1011000 8371000,-2639000 1153000,-737000 3937000,-3474000 2590000,-4997000 -848000,-959000 -1844000,1313000 -2796000,2190000 -4449000,4097000 -5860000,-285000 -10653000,514000 -1272000,212000 -2914000,981000 -3960000,1527000 -1186000,620000 -2491000,1252000 -3638000,1893000 -1186000,663000 -2444000,1251000 -3710000,1764000 -2919000,1181000 -5803000,1905000 -9107000,745000 -2564000,-900000 -4800000,-2721000 -5700000,-5366000 -1056000,-3102000 -306000,-6797000 -987000,-10026000 -595000,-2823000 -1781000,-5715000 -3243000,-7770000 -890000,-1251000 -1588000,-1937000 -2660000,-2874000 -494000,-431000 -2600000,-1840000 -3433000,-2047000l0 2541000z"/>
   <path class="fil2 str0" d="M43169000 6354000c2540000,-527000 3661000,2735000 7193000,3413000 2873000,552000 7112000,-1993000 5255000,4125000 -879000,2895000 -2840000,4551000 -5611000,5076000 -335000,64000 -409000,-50000 -632000,-194000l-1678000 -979000c-1487000,-866000 -3130000,-1779000 -4388000,-2691000 -1601000,-1162000 -2700000,-2028000 -2796000,-4298000 -81000,-1927000 615000,-4028000 2657000,-4452000zm-7064000 -6338000l-3327000 0 -944000 1880000c-938000,1948000 -1692000,4374000 -1953000,6576000 -565000,4790000 870000,7282000 159000,10605000 -1150000,5378000 -7195000,6489000 -11844000,8036000 -632000,210000 -1757000,411000 -1717000,1180000 50000,953000 1227000,802000 2008000,712000 817000,-94000 1602000,-235000 2421000,-416000 1575000,-347000 2919000,-850000 4278000,-1411000 1236000,-511000 2705000,-1309000 3712000,-1935000 1229000,-765000 2350000,-1505000 3393000,-2303000 578000,-441000 1095000,-799000 1600000,-1222000 2969000,-2487000 6524000,-4106000 10453000,-2555000 2620000,1035000 4968000,3630000 8365000,2115000 1751000,-782000 3495000,-2620000 4339000,-4178000 1085000,-2002000 1939000,-4208000 1809000,-6680000 -94000,-1789000 -842000,-2890000 -2177000,-3430000 -1846000,-747000 -3424000,-58000 -5288000,-309000 -1888000,-255000 -2571000,-941000 -3880000,-1818000 -1164000,-781000 -2602000,-1524000 -4365000,-1281000 -1469000,201000 -2928000,1147000 -3578000,2067000 -1430000,2025000 -1279000,4357000 -1619000,6883000 -198000,1482000 -16000,3413000 -1532000,4134000 -671000,320000 -1681000,362000 -2383000,74000 -1293000,-530000 -1819000,-2007000 -1932000,-3720000 -283000,-4307000 665000,-7754000 2818000,-11295000 196000,-322000 374000,-549000 583000,-862000 225000,-337000 429000,-529000 601000,-847000z"/>
   <path class="fil1 str0" d="M16000 52235000c1246000,264000 3371000,1436000 4308000,2127000 313000,231000 616000,440000 921000,682000 3234000,2565000 5854000,6486000 7173000,10366000 580000,1707000 971000,3279000 1209000,5213000 246000,2005000 97000,3721000 798000,5568000 1291000,3402000 4742000,4886000 8300000,3634000 1540000,-542000 2854000,-1408000 4155000,-2257000 4338000,-2830000 9076000,-5072000 14493000,-3044000 950000,355000 1533000,568000 2649000,268000 2581000,-693000 3880000,-4013000 1894000,-5745000 -929000,-810000 -3158000,-1399000 -4688000,-1674000 -3615000,-649000 -8231000,-236000 -11941000,138000 -885000,89000 -1624000,692000 -1883000,1340000 -443000,1112000 -27000,1819000 1222000,1723000 764000,-59000 1847000,-386000 2657000,-553000 899000,-186000 1830000,-356000 2751000,-460000 2040000,-230000 3951000,-333000 6032000,-87000 700000,83000 2159000,204000 2781000,437000 1083000,406000 1140000,1489000 812000,2131000 -409000,799000 -1474000,821000 -2463000,735000 -2922000,-256000 -6097000,-594000 -8965000,-38000 -1768000,343000 -3195000,1007000 -5006000,1357000 -1835000,353000 -3896000,406000 -5563000,-277000 -762000,-312000 -1446000,-770000 -1965000,-1243000 -1731000,-1578000 -2634000,-3964000 -3228000,-6355000 -1225000,-4928000 -3407000,-8875000 -7363000,-11773000 -2257000,-1654000 -5712000,-3098000 -9090000,-3674000l0 1461000z"/>
   <path class="fil2 str0" d="M57282000 91242000c672000,-188000 1266000,248000 1551000,636000 363000,495000 423000,1116000 375000,1867000 -153000,2405000 -76000,5384000 -2010000,7056000 -2244000,1940000 -6067000,1802000 -5050000,-1065000 179000,-504000 510000,-1050000 751000,-1518000l2404000 -4398000c464000,-839000 1185000,-2356000 1979000,-2578000zm13923000 15016000l6935000 0c-519000,-610000 -2404000,-1357000 -3381000,-1642000 -2707000,-791000 -5337000,-909000 -8153000,-1814000 -1504000,-483000 -2281000,-874000 -3120000,-1856000 -1597000,-1867000 -2233000,-4835000 -1931000,-7970000 224000,-2326000 1944000,-6055000 -1508000,-7237000 -1581000,-542000 -2746000,156000 -3591000,1095000 -718000,798000 -2136000,3126000 -3087000,4385000 -1137000,1509000 -1999000,2664000 -3495000,3973000 -3224000,2821000 -4680000,2733000 -6091000,3872000 -2952000,2383000 -346000,6130000 722000,6482000 9000,-13000 17000,-31000 22000,-42000 4000,-10000 15000,-29000 20000,-42000l147000 -903000c50000,-295000 116000,-590000 214000,-886000 435000,-1309000 1724000,-2059000 2667000,-1698000 547000,210000 795000,733000 1006000,1251000 483000,1184000 805000,2199000 2406000,2031000 1357000,-143000 2716000,-288000 4073000,-453000 3044000,-371000 5388000,-309000 8375000,178000 1314000,214000 2646000,432000 3929000,622000 770000,114000 3378000,342000 3841000,654000z"/>
   <path class="fil2 str0" d="M93399000 38160000c1638000,-242000 2459000,584000 2918000,1844000 236000,649000 851000,3007000 1012000,3744000 1149000,5258000 579000,8606000 3428000,13339000 308000,511000 601000,885000 921000,1462000 500000,903000 1252000,2418000 809000,3712000 -202000,590000 -632000,930000 -1249000,1125000 -2035000,640000 -3458000,-834000 -4397000,-2489000 -1998000,-3525000 449000,-8535000 -1697000,-12532000 -1743000,-3247000 -4122000,-2476000 -5022000,-4544000 -986000,-2264000 682000,-5278000 3277000,-5661000zm-6415000 5847000c513000,5002000 4258000,3438000 5836000,6912000 1240000,2732000 -526000,7248000 1318000,11347000 590000,1311000 1881000,2804000 2963000,3459000 1558000,943000 3078000,1247000 5099000,559000 1541000,-524000 2665000,-1619000 3081000,-3336000 1043000,-4311000 -1494000,-6329000 -3004000,-9367000 -2552000,-5132000 -1464000,-11280000 -3536000,-15618000 -1350000,-2828000 -4289000,-5281000 -7967000,-2911000 -2289000,1474000 -4200000,4962000 -3790000,8955000z"/>
   <path class="fil1 str0" d="M16000 27240000l0 3586000c298000,-98000 600000,-267000 931000,-382000 1064000,-371000 2190000,-449000 3309000,-245000 1399000,254000 2601000,923000 3631000,1511000 2137000,1219000 4180000,2756000 6795000,3499000 3238000,920000 5684000,310000 8266000,-1138000 1145000,-642000 2200000,-1388000 3075000,-2070000 366000,-286000 1018000,-814000 1585000,-964000 799000,-211000 1333000,340000 1553000,917000 793000,2079000 -3251000,4627000 -4857000,5299000 -2771000,1159000 -5788000,1186000 -8943000,690000 -5175000,-814000 -8108000,-3761000 -11311000,-4090000 -793000,-82000 -1578000,40000 -2251000,254000 -850000,271000 -1431000,649000 -1783000,764000l0 3278000c607000,-301000 2062000,-1893000 4205000,-1914000 1331000,-12000 3637000,945000 4774000,1391000 5396000,2112000 13771000,5546000 19516000,2343000 1361000,-758000 2448000,-1525000 3169000,-2980000 722000,-1458000 1089000,-3319000 464000,-5080000 -929000,-2619000 -3433000,-3281000 -5919000,-2258000 -1778000,732000 -3499000,2835000 -5524000,3717000 -1620000,706000 -3514000,696000 -5251000,124000 -2227000,-733000 -3892000,-2191000 -5459000,-3721000 -706000,-689000 -1560000,-1603000 -2325000,-2269000 -1787000,-1556000 -3035000,-2221000 -5520000,-1226000 -379000,151000 -737000,310000 -1078000,467000 -334000,154000 -724000,384000 -1052000,497000z"/>
   <path class="fil1 str0" d="M86984000 44007000c-410000,-3993000 1501000,-7481000 3790000,-8955000 3678000,-2370000 6617000,83000 7967000,2911000 2072000,4338000 984000,10486000 3536000,15618000 1510000,3038000 4047000,5056000 3004000,9367000 -416000,1717000 -1540000,2812000 -3081000,3336000 -2021000,688000 -3541000,384000 -5099000,-559000 -1082000,-655000 -2373000,-2148000 -2963000,-3459000 -1844000,-4099000 -78000,-8615000 -1318000,-11347000 -1578000,-3474000 -5323000,-1910000 -5836000,-6912000zm19274000 20797000l0 -9164000c-210000,-113000 -1327000,-1406000 -1579000,-1752000 -2719000,-3732000 -3078000,-8358000 -3529000,-12807000 -215000,-2119000 -229000,-3615000 -1197000,-5323000 -747000,-1317000 -1893000,-2504000 -3367000,-3166000 -1593000,-715000 -3699000,-947000 -5489000,-265000 -2866000,1091000 -4953000,3915000 -5302000,7754000 -165000,1808000 -359000,4453000 -47000,6184000 323000,1792000 1090000,3052000 2692000,3836000 1748000,856000 2521000,1433000 2866000,3644000 150000,967000 75000,2156000 5000,3154000 -247000,3526000 647000,7358000 3602000,9354000 2495000,1684000 4485000,2353000 7384000,1130000 754000,-318000 1462000,-790000 2079000,-1187000 581000,-375000 1577000,-1211000 1882000,-1392000z"/>
   <path class="fil2 str0" d="M30840000 106258000l3504000 0c-193000,-704000 -418000,-1167000 -560000,-2005000 -761000,-4470000 2206000,-9472000 5639000,-11820000 757000,-519000 2375000,-1355000 3247000,-1846000 2480000,-1398000 5476000,-3145000 7647000,-5021000l1298000 -1192000c2748000,-2617000 7751000,-9444000 5088000,-13663000 -772000,-1223000 -1452000,-1730000 -2517000,-2577000l-2797000 -2238000c-1343000,-1081000 -1582000,-1410000 -2627000,-2408000 -1235000,-1177000 -1643000,-2437000 -2487000,-2548000 -333000,698000 -323000,1331000 -92000,2080000 536000,1747000 2219000,2802000 3730000,3799000 984000,649000 2035000,1492000 2864000,2172000 821000,672000 1729000,1669000 2193000,2787000 1085000,2620000 -411000,6010000 -1532000,7725000 -1230000,1881000 -2994000,3503000 -5169000,4843000 -1428000,880000 -1796000,1039000 -3247000,1785000 -2398000,1232000 -4192000,1667000 -6734000,3343000 -769000,508000 -1466000,1053000 -2067000,1695000 -134000,144000 -171000,183000 -301000,306000l-903000 980000c-819000,856000 -1513000,1845000 -2188000,2846000 -1241000,1843000 -2088000,4098000 -2326000,6415000 -184000,1781000 68000,2912000 337000,4542000z"/>
   <path class="fil2 str0" d="M104520000 106258000l1738000 0 0 -18000000c-613000,-270000 -1210000,-701000 -1781000,-1023000 -2021000,-1140000 -3999000,-2088000 -6508000,-1330000 -2986000,902000 -4060000,4634000 -2453000,7194000 1422000,2264000 3839000,2833000 6729000,7100000 1004000,1481000 2188000,4290000 2275000,6059000z"/>
   <path class="fil2 str0" d="M25206000 16000l-3511000 0c-106000,833000 -321000,1702000 -434000,2603000 -334000,2671000 -201000,5900000 -68000,8574000 94000,1882000 160000,3791000 -927000,4923000 -977000,1018000 -2740000,1515000 -4484000,838000 -1234000,-479000 -2606000,-1883000 -3278000,-2756000 -861000,-1117000 -1485000,-2479000 -1972000,-3999000 -930000,-2909000 -975000,-6146000 -90000,-9110000 116000,-387000 319000,-745000 399000,-1073000l-3314000 0c-231000,2607000 -366000,4590000 18000,7206000 607000,4140000 2141000,7604000 4260000,10997000 932000,1493000 2255000,2912000 4422000,3212000 2583000,358000 4438000,-777000 5949000,-2573000 3162000,-3757000 1638000,-10334000 2335000,-15747000 217000,-1683000 317000,-1661000 695000,-3095000z"/>
   <path class="fil1 str0" d="M95098000 106258000l3494000 0c121000,-1613000 120000,-2379000 -895000,-3776000 -428000,-589000 -1053000,-1229000 -1550000,-1664000 -757000,-664000 -1778000,-1586000 -2479000,-2334000 -1814000,-1935000 -4365000,-5024000 -3702000,-9023000 359000,-2165000 1812000,-4923000 3436000,-6185000 572000,-444000 1244000,-888000 2055000,-1210000 1672000,-664000 3533000,-968000 5557000,-777000 2652000,250000 3659000,972000 5244000,1220000l0 -5677000c-2004000,299000 -7470000,1315000 -9271000,1892000 -1731000,553000 -3439000,1455000 -4871000,2548000 -676000,515000 -1360000,1146000 -1934000,1773000 -1082000,1182000 -2164000,2874000 -2741000,4671000 -1780000,5547000 295000,9617000 4527000,12859000 695000,532000 1434000,1079000 2178000,1529000 1207000,731000 2687000,1693000 1909000,3303000 -328000,681000 -658000,645000 -957000,851000z"/>
   <path class="fil1 str0" d="M43169000 6354000c-2042000,424000 -2738000,2525000 -2657000,4452000 96000,2270000 1195000,3136000 2796000,4298000 1258000,912000 2901000,1825000 4388000,2691000l1678000 979000c223000,144000 297000,258000 632000,194000 2771000,-525000 4732000,-2181000 5611000,-5076000 1857000,-6118000 -2382000,-3573000 -5255000,-4125000 -3532000,-678000 -4653000,-3940000 -7193000,-3413000z"/>
   <path class="fil2 str0" d="M45721000 16000l-5146000 0c-328000,214000 -2448000,547000 -4061000,2357000 -2294000,2573000 -2952000,6232000 -3080000,9759000 -41000,1112000 36000,1981000 777000,2440000 646000,401000 1700000,508000 2024000,-629000 785000,-2760000 -694000,-7310000 2692000,-10154000 1132000,-950000 2748000,-1762000 4748000,-1672000 1982000,90000 3365000,830000 4889000,1536000 1586000,736000 3284000,1200000 5282000,670000 2020000,-536000 3728000,-846000 5058000,495000 1090000,1098000 1403000,3880000 1901000,4519000 1132000,1449000 2990000,-424000 2933000,-2514000 -48000,-1753000 -1451000,-3293000 -2328000,-4069000 -3349000,-2964000 -7524000,-748000 -10757000,-1199000 -746000,-104000 -4443000,-1207000 -4932000,-1539000z"/>
   <path class="fil1 str0" d="M93399000 38160000c-2595000,383000 -4263000,3397000 -3277000,5661000 900000,2068000 3279000,1297000 5022000,4544000 2146000,3997000 -301000,9007000 1697000,12532000 939000,1655000 2362000,3129000 4397000,2489000 617000,-195000 1047000,-535000 1249000,-1125000 443000,-1294000 -309000,-2809000 -809000,-3712000 -320000,-577000 -613000,-951000 -921000,-1462000 -2849000,-4733000 -2279000,-8081000 -3428000,-13339000 -161000,-737000 -776000,-3095000 -1012000,-3744000 -459000,-1260000 -1280000,-2086000 -2918000,-1844000z"/>
   <path class="fil2 str0" d="M16000 61876000c593000,249000 1802000,1462000 2227000,2093000 1387000,2055000 1799000,4003000 2188000,6500000 609000,3905000 1010000,7762000 -426000,11507000 -748000,1949000 -1806000,3975000 -3989000,4734000l0 4053000c575000,-134000 1654000,-609000 2174000,-865000 4210000,-2072000 5385000,-4823000 5989000,-9507000 582000,-4508000 -611000,-12171000 -2299000,-15965000 -872000,-1961000 -2174000,-4155000 -3939000,-5357000 -474000,-323000 -1393000,-1000000 -1925000,-1181000l0 3988000z"/>
   <path class="fil1 str0" d="M21695000 16000l-4497000 0c-129000,325000 -332000,654000 -528000,1000000l-1570000 3014000c-1804000,3817000 -794000,5973000 2404000,8047000 592000,384000 1229000,790000 1546000,1497000 385000,858000 33000,1745000 -805000,1911000 -2412000,477000 -4156000,-1993000 -5397000,-3679000 -295000,-401000 -841000,-1432000 -1038000,-2006000 -1135000,-3303000 -834000,-5680000 570000,-8764000 134000,-296000 427000,-746000 485000,-1020000l-2024000 0c-80000,328000 -283000,686000 -399000,1073000 -885000,2964000 -840000,6201000 90000,9110000 487000,1520000 1111000,2882000 1972000,3999000 672000,873000 2044000,2277000 3278000,2756000 1744000,677000 3507000,180000 4484000,-838000 1087000,-1132000 1021000,-3041000 927000,-4923000 -133000,-2674000 -266000,-5903000 68000,-8574000 113000,-901000 328000,-1770000 434000,-2603000z"/>
   <path class="fil2 str0" d="M61933000 51589000c995000,-54000 4385000,-1508000 5375000,-1990000 2515000,-1224000 4474000,-2611000 6370000,-4640000 1580000,-1691000 3569000,-4586000 4167000,-6905000 610000,-2367000 552000,-4086000 -192000,-6336000 -907000,-2743000 -3145000,-4518000 -5693000,-5321000 -3208000,-1011000 -6529000,-471000 -9438000,714000 -673000,274000 -1857000,841000 -2210000,1438000 -303000,515000 37000,1110000 348000,1300000 1058000,648000 4259000,-1379000 7528000,-1418000 4651000,-55000 7831000,2794000 7366000,7275000 -381000,3674000 -2883000,7059000 -5641000,9087000 -1746000,1284000 -5001000,3077000 -6425000,4640000 -347000,381000 -1451000,1419000 -1555000,2156000z"/>
   <path class="fil2 str0" d="M98592000 106258000l3032000 0c4000,-1058000 69000,-1688000 -149000,-2745000 -600000,-2906000 -2847000,-5051000 -4947000,-6781000 -569000,-468000 -1089000,-847000 -1548000,-1385000 -3730000,-4375000 -2109000,-9874000 2051000,-11316000 4033000,-1398000 6361000,965000 9227000,1653000l0 -3175000c-1585000,-248000 -2592000,-970000 -5244000,-1220000 -2024000,-191000 -3885000,113000 -5557000,777000 -811000,322000 -1483000,766000 -2055000,1210000 -1624000,1262000 -3077000,4020000 -3436000,6185000 -663000,3999000 1888000,7088000 3702000,9023000 701000,748000 1722000,1670000 2479000,2334000 497000,435000 1122000,1075000 1550000,1664000 1015000,1397000 1016000,2163000 895000,3776000z"/>
   <path class="fil1 str0" d="M27306000 16000l-2100000 0c-378000,1434000 -478000,1412000 -695000,3095000 -697000,5413000 827000,11990000 -2335000,15747000 -1511000,1796000 -3366000,2931000 -5949000,2573000 -2167000,-300000 -3490000,-1719000 -4422000,-3212000 -2119000,-3393000 -3653000,-6857000 -4260000,-10997000 -384000,-2616000 -249000,-4599000 -18000,-7206000l-2213000 0c-473000,2207000 921000,8712000 1798000,11112000l1197000 3221000c808000,2023000 1957000,4105000 3019000,5783000 1026000,1620000 2692000,3284000 5011000,3845000 2643000,640000 4958000,-748000 6340000,-2128000 3667000,-3663000 4180000,-8448000 4022000,-13699000 -65000,-2163000 -153000,-4208000 184000,-6336000 106000,-669000 294000,-1182000 421000,-1798000z"/>
   <path class="fil1 str0" d="M106258000 28503000l0 -11833000c-811000,254000 -1037000,543000 -2278000,713000 -950000,129000 -1927000,-27000 -2740000,-277000 -1539000,-473000 -2675000,-1309000 -3938000,-2104000 -1134000,-714000 -2424000,-2761000 -3799000,-1624000 -467000,387000 -875000,1235000 -1046000,1946000 -541000,2260000 1093000,4877000 2828000,6069000 664000,456000 1081000,724000 1861000,1128000 2675000,1389000 5043000,1931000 7587000,4474000l1525000 1508000z"/>
   <path class="fil2 str0" d="M67413000 30769000c-24000,615000 338000,683000 808000,861000 899000,342000 2478000,1273000 2988000,2048000 1004000,1523000 -330000,3874000 -1143000,4905000 -1573000,1993000 -5358000,4421000 -7602000,5896000 -4058000,2668000 -6919000,4872000 -10241000,8300000 -339000,350000 -541000,560000 -817000,895000 -493000,599000 -1094000,1400000 -594000,2452000 989000,2078000 3011000,-165000 3956000,-1080000 4741000,-4588000 7524000,-6928000 12874000,-10758000 2572000,-1842000 5353000,-4173000 6066000,-7434000 467000,-2134000 -177000,-4509000 -1639000,-5582000 -174000,-128000 -292000,-205000 -507000,-324000 -1154000,-640000 -3104000,-825000 -4149000,-179000z"/>
   <path class="fil2 str0" d="M48773000 46552000c221000,-1008000 -745000,-1594000 -1665000,-1381000 -784000,181000 -1545000,940000 -1914000,1349000 -1111000,1233000 -1367000,2989000 -1433000,5067000 -33000,1018000 -162000,1972000 -237000,2988000 -73000,987000 -177000,1942000 -409000,2873000 -1279000,5146000 -5248000,2343000 -8369000,1353000 -4086000,-1297000 -8044000,-373000 -10938000,2579000 -680000,693000 -1828000,1878000 -2153000,2669000 -368000,896000 53000,2850000 2041000,761000 1328000,-1396000 2836000,-2496000 4855000,-3231000 1696000,-618000 3864000,-637000 5731000,-267000 2215000,438000 3468000,1243000 4952000,1514000 2143000,393000 3724000,-380000 4734000,-1595000 1095000,-1318000 1279000,-2920000 1601000,-4871000 309000,-1875000 665000,-3581000 1231000,-5298000 265000,-801000 584000,-1591000 934000,-2332000 295000,-623000 894000,-1519000 1039000,-2178000z"/>
   <path class="fil2 str0" d="M16000 30826000l0 4045000c352000,-115000 933000,-493000 1783000,-764000 673000,-214000 1458000,-336000 2251000,-254000 3203000,329000 6136000,3276000 11311000,4090000 3155000,496000 6172000,469000 8943000,-690000 1606000,-672000 5650000,-3220000 4857000,-5299000 -220000,-577000 -754000,-1128000 -1553000,-917000 -567000,150000 -1219000,678000 -1585000,964000 -875000,682000 -1930000,1428000 -3075000,2070000 -2582000,1448000 -5028000,2058000 -8266000,1138000 -2615000,-743000 -4658000,-2280000 -6795000,-3499000 -1030000,-588000 -2232000,-1257000 -3631000,-1511000 -1119000,-204000 -2245000,-126000 -3309000,245000 -331000,115000 -633000,284000 -931000,382000z"/>
   <path class="fil2 str0" d="M38406000 80306000c668000,-1476000 -2326000,-1083000 -3433000,-675000 -4078000,1503000 -9495000,8042000 -17475000,6825000 -1960000,-299000 -2906000,-929000 -3826000,-1107000 -1510000,-291000 -2705000,1236000 -1257000,2312000 1925000,1429000 4456000,2521000 6958000,2940000 4401000,737000 7373000,-1577000 10553000,-4012000 2070000,-1584000 3359000,-2670000 5611000,-4237000 443000,-308000 993000,-639000 1533000,-964000 545000,-327000 1051000,-453000 1336000,-1082000z"/>
   <path class="fil2 str0" d="M106258000 10056000l0 -3787000c-704000,259000 -1074000,704000 -2478000,1061000 -3270000,830000 -5682000,-456000 -8180000,-2080000 -1038000,-675000 -2025000,-1480000 -3057000,-2251000 -1358000,-1015000 -2938000,-2058000 -4605000,-2592000 -258000,-83000 -1314000,-327000 -1431000,-391000l-4295000 0c-562000,290000 -3408000,-77000 -2943000,2375000 314000,1655000 2544000,985000 3905000,775000 3586000,-553000 6011000,731000 8164000,2363000 475000,360000 998000,825000 1466000,1191000 3602000,2814000 7312000,5713000 12456000,3743000 299000,-115000 724000,-326000 998000,-407000z"/>
   <path class="fil2 str0" d="M74938000 16000l-2969000 0c182000,2431000 926000,4997000 1446000,7337000 539000,2423000 760000,5500000 -515000,7447000 -552000,843000 -1331000,1454000 -2381000,1986000 -942000,477000 -2090000,892000 -2988000,1387000 -1255000,691000 -3519000,1661000 -2129000,3609000 309000,433000 755000,793000 1516000,716000 1745000,-175000 6334000,-3675000 7778000,-5350000 696000,-806000 1305000,-1576000 1794000,-2635000 2254000,-4876000 -1302000,-9575000 -1552000,-14497000z"/>
   <path class="fil1 str0" d="M106258000 73221000l0 -4584000c-825000,179000 -2255000,817000 -2985000,1159000 -2988000,1398000 -5014000,2757000 -7683000,4603000 -1649000,1140000 -3097000,2228000 -4831000,3411000 -1865000,1273000 -2979000,1916000 -4585000,3606000 -2663000,2802000 -4715000,7122000 -3565000,12240000 605000,2697000 2262000,5329000 4226000,7123000 615000,562000 2234000,1965000 3003000,2135000 -74000,-182000 11000,-21000 -115000,-209000 -580000,-866000 -2074000,-2401000 -3081000,-3891000 -3656000,-5411000 -3404000,-11141000 344000,-16033000 687000,-897000 1768000,-2132000 2624000,-2854000 3477000,-2929000 6431000,-4052000 10864000,-5301000 860000,-242000 5053000,-1290000 5784000,-1405000z"/>
   <path class="fil2 str0" d="M63827000 16000l-3726000 0 1181000 819000c1167000,918000 2088000,1801000 2757000,3272000 1306000,2870000 584000,5449000 -1197000,7604000 -302000,366000 -615000,688000 -927000,1067000 -713000,863000 -1110000,1297000 -1783000,2260000 -1975000,2825000 -4380000,7064000 -8054000,7991000 -3426000,865000 -6910000,-1737000 -9346000,-2321000 -1218000,-292000 -2382000,-357000 -3643000,-174000 -2081000,301000 -4346000,1458000 -4636000,3418000 416000,17000 1058000,-322000 1421000,-475000 492000,-207000 935000,-344000 1481000,-511000 2253000,-687000 4607000,-625000 6834000,111000 993000,327000 1818000,790000 2841000,1144000 5012000,1734000 7764000,-581000 10791000,-3919000l3526000 -4384000c1136000,-1562000 2961000,-3121000 3755000,-4156000 1178000,-1537000 1717000,-3929000 1334000,-6407000 -213000,-1379000 -966000,-3167000 -1769000,-4198000l-840000 -1141000z"/>
   <path class="fil1 str0" d="M62551000 64481000c123000,675000 849000,993000 1441000,1374000 1862000,1197000 3655000,3288000 3944000,5748000 49000,413000 13000,861000 90000,1278000 185000,1006000 1006000,788000 1747000,439000 1276000,-601000 1971000,-1624000 2275000,-3259000 915000,-4913000 -414000,-10672000 -6792000,-8402000 -721000,256000 -1269000,515000 -1818000,948000 -365000,289000 -1036000,1060000 -887000,1874000z"/>
   <path class="fil1 str0" d="M101624000 106258000l2896000 0c-87000,-1769000 -1271000,-4578000 -2275000,-6059000 -2890000,-4267000 -5307000,-4836000 -6729000,-7100000 -1607000,-2560000 -533000,-6292000 2453000,-7194000 2509000,-758000 4487000,190000 6508000,1330000 571000,322000 1168000,753000 1781000,1023000l0 -2574000c-2866000,-688000 -5194000,-3051000 -9227000,-1653000 -4160000,1442000 -5781000,6941000 -2051000,11316000 459000,538000 979000,917000 1548000,1385000 2100000,1730000 4347000,3875000 4947000,6781000 218000,1057000 153000,1687000 149000,2745000z"/>
   <path class="fil2 str0" d="M16000 100604000l0 5654000 1202000 0c155000,-922000 600000,-2295000 908000,-3087000 1100000,-2826000 3073000,-5691000 6830000,-4801000 2624000,623000 3980000,3207000 5331000,4627000 426000,448000 2449000,2857000 2675000,3261000l3790000 0c-116000,-168000 -439000,-405000 -608000,-540000 -1741000,-1387000 -4869000,-4906000 -6142000,-6640000 -2272000,-3096000 -5295000,-4950000 -9310000,-3027000 -3282000,1572000 -4107000,4060000 -4676000,4553000z"/>
   <path class="fil1 str0" d="M16000 65658000c274000,234000 767000,1137000 962000,1511000 972000,1860000 1279000,4022000 1405000,6164000 139000,2364000 143000,4366000 -1155000,6304000 -267000,399000 -814000,1108000 -1212000,1352000l0 5721000c2183000,-759000 3241000,-2785000 3989000,-4734000 1436000,-3745000 1035000,-7602000 426000,-11507000 -389000,-2497000 -801000,-4445000 -2188000,-6500000 -425000,-631000 -1634000,-1844000 -2227000,-2093000l0 3782000z"/>
   <path class="fil2 str0" d="M17198000 16000l-4333000 0c-58000,274000 -351000,724000 -485000,1020000 -1404000,3084000 -1705000,5461000 -570000,8764000 197000,574000 743000,1605000 1038000,2006000 1241000,1686000 2985000,4156000 5397000,3679000 838000,-166000 1190000,-1053000 805000,-1911000 -317000,-707000 -954000,-1113000 -1546000,-1497000 -3198000,-2074000 -4208000,-4230000 -2404000,-8047000l1570000 -3014000c196000,-346000 399000,-675000 528000,-1000000z"/>
   <path class="fil1 str0" d="M16000 20447000l0 3260000c3705000,-665000 6429000,-6192000 5914000,-10392000 -141000,-1148000 -529000,-2243000 -859000,-3250000 -1123000,-3423000 -2552000,-6074000 -2321000,-10049000l-1613000 0c-68000,2494000 2000,3252000 866000,5701000 601000,1705000 1273000,3235000 1604000,5145000 534000,3079000 -221000,5570000 -1914000,7874000 -285000,388000 -1326000,1544000 -1677000,1711000z"/>
   <path class="fil1 str0" d="M57282000 91242000c-794000,222000 -1515000,1739000 -1979000,2578000l-2404000 4398000c-241000,468000 -572000,1014000 -751000,1518000 -1017000,2867000 2806000,3005000 5050000,1065000 1934000,-1672000 1857000,-4651000 2010000,-7056000 48000,-751000 -12000,-1372000 -375000,-1867000 -285000,-388000 -879000,-824000 -1551000,-636000z"/>
   <path class="fil1 str0" d="M1218000 106258000l2412000 0c188000,-1148000 946000,-2687000 1754000,-3485000 880000,-872000 2251000,-1445000 3970000,-1238000 2286000,275000 3622000,2445000 5066000,4041000 178000,197000 515000,492000 631000,682000l1911000 0c-226000,-404000 -2249000,-2813000 -2675000,-3261000 -1351000,-1420000 -2707000,-4004000 -5331000,-4627000 -3757000,-890000 -5730000,1975000 -6830000,4801000 -308000,792000 -753000,2165000 -908000,3087000z"/>
   <path class="fil1 str0" d="M40424000 26844000c-1123000,237000 -1029000,1899000 -1088000,3054000 -68000,1349000 -444000,7098000 -258000,8005000 306000,1490000 1768000,1020000 2711000,512000 1982000,-1068000 2070000,-3648000 1676000,-6368000 -169000,-1166000 -464000,-2308000 -858000,-3291000 -394000,-983000 -777000,-2208000 -2183000,-1912000z"/>
   <path class="fil1 str0" d="M106258000 6269000l0 -4088000c-1498000,746000 -3541000,3664000 -7937000,2334000 -1980000,-599000 -4144000,-2511000 -5674000,-3891000 -210000,-189000 -502000,-379000 -703000,-608000l-5437000 0c117000,64000 1173000,308000 1431000,391000 1667000,534000 3247000,1577000 4605000,2592000 1032000,771000 2019000,1576000 3057000,2251000 2498000,1624000 4910000,2910000 8180000,2080000 1404000,-357000 1774000,-802000 2478000,-1061000z"/>
   <path class="fil2 str0" d="M16000 6090000c399000,397000 740000,1821000 834000,2333000 162000,888000 300000,1922000 337000,2825000 41000,992000 4000,1997000 -230000,2945000 -137000,557000 -597000,1949000 -941000,2244000l0 4010000c351000,-167000 1392000,-1323000 1677000,-1711000 1693000,-2304000 2448000,-4795000 1914000,-7874000 -331000,-1910000 -1003000,-3440000 -1604000,-5145000 -864000,-2449000 -934000,-3207000 -866000,-5701000l-1121000 0 0 6074000z"/>
   <path class="fil2 str0" d="M106258000 2181000l0 -2165000 -2140000 0c-197000,389000 -1049000,1230000 -1440000,1513000 -562000,406000 -1348000,740000 -2288000,670000 -873000,-66000 -1608000,-445000 -2140000,-813000 -371000,-257000 -1301000,-1059000 -1505000,-1370000l-4801000 0c201000,229000 493000,419000 703000,608000 1530000,1380000 3694000,3292000 5674000,3891000 4396000,1330000 6439000,-1588000 7937000,-2334000z"/>
   <path class="fil2 str0" d="M3630000 106258000l3079000 0c151000,-523000 591000,-1055000 855000,-1306000 372000,-353000 936000,-572000 1639000,-513000 1078000,90000 2054000,1002000 2450000,1819000l3398000 0c-116000,-190000 -453000,-485000 -631000,-682000 -1444000,-1596000 -2780000,-3766000 -5066000,-4041000 -1719000,-207000 -3090000,366000 -3970000,1238000 -808000,798000 -1566000,2337000 -1754000,3485000z"/>
   <path class="fil2 str0" d="M16000 80989000c398000,-244000 945000,-953000 1212000,-1352000 1298000,-1938000 1294000,-3940000 1155000,-6304000 -126000,-2142000 -433000,-4304000 -1405000,-6164000 -195000,-374000 -688000,-1277000 -962000,-1511000l0 15331000z"/>
   <path class="fil1 str0" d="M104118000 16000l-7373000 0c204000,311000 1134000,1113000 1505000,1370000 532000,368000 1267000,747000 2140000,813000 940000,70000 1726000,-264000 2288000,-670000 391000,-283000 1243000,-1124000 1440000,-1513000z"/>
   <path class="fil1 str0" d="M16000 16437000c344000,-295000 804000,-1687000 941000,-2244000 234000,-948000 271000,-1953000 230000,-2945000 -37000,-903000 -175000,-1937000 -337000,-2825000 -94000,-512000 -435000,-1936000 -834000,-2333000l0 10347000z"/>
   <path class="fil1 str0" d="M6709000 106258000l4944000 0c-396000,-817000 -1372000,-1729000 -2450000,-1819000 -703000,-59000 -1267000,160000 -1639000,513000 -264000,251000 -704000,783000 -855000,1306000z"/>
  </g>
 </g>
</svg>
